<svg xmlns="http://www.w3.org/2000/svg" viewBox="0 0 500 500"><g id="freepik--background-simple--inject-2"><path d="M187.3,451.92s80.26,23.39,152.14-23.07,101.81-133.48,128-203.29.29-138.39-61-167.38S310.29,77.71,229,83.76,124.57,79.41,61.39,127.59-3.44,282.7,57.78,359,187.3,451.92,187.3,451.92Z" style="fill:#1C2C4B"></path><path d="M187.3,451.92s80.26,23.39,152.14-23.07,101.81-133.48,128-203.29.29-138.39-61-167.38S310.29,77.71,229,83.76,124.57,79.41,61.39,127.59-3.44,282.7,57.78,359,187.3,451.92,187.3,451.92Z" style="fill:#fff;opacity:0.7000000000000001"></path></g><g id="freepik--Symbol--inject-2"><circle cx="255.63" cy="102.75" r="60.75" transform="translate(2.22 210.85) rotate(-45)" style="fill:none;stroke:#263238;stroke-linecap:round;stroke-linejoin:round"></circle><path d="M307.77,105.36l.11-2.11c1.4,1.31,2.81,2.71,4.2,4.23,0,.38,0,.76-.06,1.14l-.17,1.13A45.89,45.89,0,0,0,307.77,105.36Z" style="fill:none;stroke:#263238;stroke-linecap:round;stroke-linejoin:round"></path><path d="M307,112.3l.32-2.09c.63.74,1.26,1.51,1.88,2.31A27.19,27.19,0,0,1,311,115l-.57,2.21c-.54-.86-1.09-1.7-1.64-2.51l-.83-1.2Z" style="fill:none;stroke:#263238;stroke-linecap:round;stroke-linejoin:round"></path><path d="M305.27,119.06a14.2,14.2,0,0,0,.6-2,41.34,41.34,0,0,1,2.95,5.19l-.79,2.14Q306.71,121.57,305.27,119.06Z" style="fill:none;stroke:#263238;stroke-linecap:round;stroke-linejoin:round"></path><path d="M302.63,125.51l.91-1.9q1.18,2.63,2.24,5.55a21.67,21.67,0,0,1-1.13,2A43,43,0,0,0,302.63,125.51Z" style="fill:none;stroke:#263238;stroke-linecap:round;stroke-linejoin:round"></path><path d="M299.21,131.6l1.09-1.81a44,44,0,0,1,1.49,5.8l-1.37,1.83C300.07,135.39,299.73,133.49,299.21,131.6Z" style="fill:none;stroke:#263238;stroke-linecap:round;stroke-linejoin:round"></path><path d="M294.94,137.12a18.94,18.94,0,0,0,1.38-1.59,53.38,53.38,0,0,1,.67,5.91c-.53.55-1,1.15-1.57,1.67C295.38,141.08,295.17,139,294.94,137.12Z" style="fill:none;stroke:#263238;stroke-linecap:round;stroke-linejoin:round"></path><path d="M290,142.06l1.56-1.42c.05,1.93.05,4-.08,6L289.66,148c.12-1,.21-2,.29-3S290,143,290,142.06Z" style="fill:none;stroke:#263238;stroke-linecap:round;stroke-linejoin:round"></path><path d="M284.48,146.32a20.54,20.54,0,0,0,1.71-1.23c-.09,1-.17,2-.33,3s-.35,1.93-.56,2.92l-2,1.19C283.82,150.17,284.19,148.22,284.48,146.32Z" style="fill:none;stroke:#263238;stroke-linecap:round;stroke-linejoin:round"></path><path d="M278.4,149.74l1.9-.91q-.69,2.79-1.69,5.72c-.34.16-.68.34-1,.48l-1.08.39A42.54,42.54,0,0,0,278.4,149.74Z" style="fill:none;stroke:#263238;stroke-linecap:round;stroke-linejoin:round"></path><path d="M271.94,152.39l2-.73c-.34.92-.71,1.84-1.11,2.77l-.62,1.4-.68,1.32-2.22.57c.5-.89,1-1.77,1.42-2.65A24.31,24.31,0,0,0,271.94,152.39Z" style="fill:none;stroke:#263238;stroke-linecap:round;stroke-linejoin:round"></path><path d="M265.18,154.11l1.05-.16,1-.27a43.44,43.44,0,0,1-3.14,5.06l-2.27.35Q263.69,156.57,265.18,154.11Z" style="fill:none;stroke:#263238;stroke-linecap:round;stroke-linejoin:round"></path><path d="M258.25,154.89l2.11-.11c-1.16,1.53-2.42,3.08-3.79,4.62a17.52,17.52,0,0,1-2.29,0A43.21,43.21,0,0,0,258.25,154.89Z" style="fill:none;stroke:#263238;stroke-linecap:round;stroke-linejoin:round"></path><path d="M251.27,154.8l2.11.11c-.68.7-1.38,1.4-2.11,2.1a28.2,28.2,0,0,1-2.26,2l-2.26-.35c.81-.62,1.58-1.25,2.33-1.88l1.11-1Z" style="fill:none;stroke:#263238;stroke-linecap:round;stroke-linejoin:round"></path><path d="M244.37,153.77a14.28,14.28,0,0,0,2.07.4,42.79,42.79,0,0,1-4.87,3.45l-2.21-.57C241.13,156,242.8,154.89,244.37,153.77Z" style="fill:none;stroke:#263238;stroke-linecap:round;stroke-linejoin:round"></path><path d="M237.68,151.79l2,.73q-2.49,1.44-5.29,2.77a17,17,0,0,1-2.09-.92A42.45,42.45,0,0,0,237.68,151.79Z" style="fill:none;stroke:#263238;stroke-linecap:round;stroke-linejoin:round"></path><path d="M231.29,149l1.9.92a45.42,45.42,0,0,1-5.62,2.06l-2-1.19c1-.26,1.95-.53,2.89-.82S230.35,149.39,231.29,149Z" style="fill:none;stroke:#263238;stroke-linecap:round;stroke-linejoin:round"></path><path d="M225.36,145.31a13.68,13.68,0,0,0,1.73,1.2,25.56,25.56,0,0,1-2.87.71c-1,.2-1.95.39-2.95.55-.61-.46-1.23-.9-1.82-1.38C221.49,146.12,223.48,145.74,225.36,145.31Z" style="fill:none;stroke:#263238;stroke-linecap:round;stroke-linejoin:round"></path><path d="M220,140.89l1.56,1.42q-2.86.38-6,.52L214,141.14c1,0,2,0,3,0S219,141,220,140.89Z" style="fill:none;stroke:#263238;stroke-linecap:round;stroke-linejoin:round"></path><path d="M215.16,135.82c.44.55.94,1.05,1.4,1.58-1,0-2,0-3,0s-2-.16-3-.27l-1.36-1.83Q212.29,135.67,215.16,135.82Z" style="fill:none;stroke:#263238;stroke-linecap:round;stroke-linejoin:round"></path><path d="M211.15,130.11l1.09,1.8c-1.89-.28-3.84-.64-5.84-1.11l-.59-1-.51-1,1.43.41,1.49.34C209.21,129.76,210.19,130,211.15,130.11Z" style="fill:none;stroke:#263238;stroke-linecap:round;stroke-linejoin:round"></path><path d="M207.87,124l.92,1.9c-.94-.26-1.89-.53-2.86-.84a28,28,0,0,1-2.84-1l-.79-2.14c.93.4,1.86.79,2.77,1.14l1.36.52Z" style="fill:none;stroke:#263238;stroke-linecap:round;stroke-linejoin:round"></path><path d="M205.47,117.4c.1.34.16.68.28,1l.36,1a42.81,42.81,0,0,1-5.36-2.62l-.56-2.21C202,115.62,203.74,116.56,205.47,117.4Z" style="fill:none;stroke:#263238;stroke-linecap:round;stroke-linejoin:round"></path><path d="M204,110.58l.32,2.08q-2.46-1.48-5-3.31a15.69,15.69,0,0,1-.2-2.27A42.62,42.62,0,0,0,204,110.58Z" style="fill:none;stroke:#263238;stroke-linecap:round;stroke-linejoin:round"></path><path d="M203.4,103.63l.1,2.1c-.76-.6-1.53-1.23-2.3-1.88l-1.16-1c-.37-.34-.71-.69-1.06-1l.11-2.29c.7.74,1.4,1.46,2.11,2.14l1.05,1C202.62,103,203,103.31,203.4,103.63Z" style="fill:none;stroke:#263238;stroke-linecap:round;stroke-linejoin:round"></path><path d="M203.74,96.65a13.43,13.43,0,0,0-.18,2.1,41,41,0,0,1-3.93-4.49L200,92C201.21,93.66,202.47,95.21,203.74,96.65Z" style="fill:none;stroke:#263238;stroke-linecap:round;stroke-linejoin:round"></path><path d="M205,89.8l-.53,2c-1.12-1.55-2.22-3.21-3.28-5,.1-.37.18-.74.3-1.1l.39-1.08A42.9,42.9,0,0,0,205,89.8Z" style="fill:none;stroke:#263238;stroke-linecap:round;stroke-linejoin:round"></path><path d="M207.18,83.16l-.72,2c-.47-.85-.94-1.73-1.39-2.64l-.67-1.37-.57-1.38,1-2.06c.35,1,.72,1.89,1.1,2.79A29.44,29.44,0,0,0,207.18,83.16Z" style="fill:none;stroke:#263238;stroke-linecap:round;stroke-linejoin:round"></path><path d="M210.24,76.89l-.55.9-.46.95-.56-1.4L208.22,76c-.29-.94-.57-1.9-.83-2.88l1.19-2C209.07,73.13,209.63,75.06,210.24,76.89Z" style="fill:none;stroke:#263238;stroke-linecap:round;stroke-linejoin:round"></path><path d="M214.11,71.08l-1.27,1.69q-.65-2.82-1.1-5.9c.47-.59,1-1.13,1.52-1.7.08,1,.17,2,.3,3S213.91,70.12,214.11,71.08Z" style="fill:none;stroke:#263238;stroke-linecap:round;stroke-linejoin:round"></path><path d="M218.66,65.79l-1.42,1.56c-.11-1-.2-2-.27-3s0-2,0-3l1.69-1.54Q218.53,62.93,218.66,65.79Z" style="fill:none;stroke:#263238;stroke-linecap:round;stroke-linejoin:round"></path><path d="M224,61.23c-.56.43-1.13.83-1.68,1.28.07-1.93.26-3.89.52-5.93a19,19,0,0,1,1.88-1.3,28.68,28.68,0,0,0-.45,3C224.11,59.28,224,60.26,224,61.23Z" style="fill:none;stroke:#263238;stroke-linecap:round;stroke-linejoin:round"></path><path d="M229.76,57.36l-1.8,1.1c.16-1,.34-1.93.54-2.92s.43-2,.73-2.94l2.06-1A43.7,43.7,0,0,0,229.76,57.36Z" style="fill:none;stroke:#263238;stroke-linecap:round;stroke-linejoin:round"></path><path d="M236,54.31a13.74,13.74,0,0,0-1.93.84,42.15,42.15,0,0,1,2.06-5.59l2.15-.79C237.44,50.65,236.69,52.5,236,54.31Z" style="fill:none;stroke:#263238;stroke-linecap:round;stroke-linejoin:round"></path><path d="M242.67,52.16l-2,.52q1.24-2.59,2.8-5.27a17,17,0,0,1,2.24-.43A42.41,42.41,0,0,0,242.67,52.16Z" style="fill:none;stroke:#263238;stroke-linecap:round;stroke-linejoin:round"></path><path d="M249.52,50.86l-2.08.32c.52-.83,1.07-1.65,1.64-2.49l.89-1.25.93-1.15,2.29-.12c-.67.77-1.31,1.55-1.92,2.31A28.63,28.63,0,0,0,249.52,50.86Z" style="fill:none;stroke:#263238;stroke-linecap:round;stroke-linejoin:round"></path><path d="M256.49,50.52a12.27,12.27,0,0,0-2.1,0,41.86,41.86,0,0,1,4.08-4.35l2.28.12Q258.47,48.41,256.49,50.52Z" style="fill:none;stroke:#263238;stroke-linecap:round;stroke-linejoin:round"></path><path d="M263.45,51.12l-2.09-.32c1.44-1.26,3-2.52,4.63-3.76l1.13.18,1.11.29A42.45,42.45,0,0,0,263.45,51.12Z" style="fill:none;stroke:#263238;stroke-linecap:round;stroke-linejoin:round"></path><path d="M270.27,52.59l-2-.52c.8-.56,1.63-1.1,2.48-1.65s1.74-1.08,2.61-1.51l2.15.78c-.91.45-1.8.91-2.66,1.38l-1.28.71Z" style="fill:none;stroke:#263238;stroke-linecap:round;stroke-linejoin:round"></path><path d="M276.82,55c-.32-.15-.63-.32-.95-.45l-1-.36a42.87,42.87,0,0,1,5.45-2.4l2.06,1Q279.47,53.81,276.82,55Z" style="fill:none;stroke:#263238;stroke-linecap:round;stroke-linejoin:round"></path><path d="M283,58.26l-1.8-1.09q2.73-.93,5.75-1.68c.66.39,1.23.89,1.85,1.33-1,.19-1.94.36-2.92.61S283.92,58,283,58.26Z" style="fill:none;stroke:#263238;stroke-linecap:round;stroke-linejoin:round"></path><path d="M288.69,62.27,287,61c1-.2,1.94-.39,2.95-.56s1.95-.24,3-.34l1.69,1.54C292.56,61.79,290.61,62,288.69,62.27Z" style="fill:none;stroke:#263238;stroke-linecap:round;stroke-linejoin:round"></path><path d="M293.76,67.07c-.48-.5-.92-1.06-1.44-1.53a58.61,58.61,0,0,1,5.95-.08,20.43,20.43,0,0,1,1.49,1.74A55,55,0,0,0,293.76,67.07Z" style="fill:none;stroke:#263238;stroke-linecap:round;stroke-linejoin:round"></path><path d="M298.19,72.47l-1.27-1.69a57.16,57.16,0,0,1,6,.68l1.19,2A44,44,0,0,0,298.19,72.47Z" style="fill:none;stroke:#263238;stroke-linecap:round;stroke-linejoin:round"></path><path d="M301.87,78.4a16.63,16.63,0,0,0-1.05-1.83,42.6,42.6,0,0,1,5.78,1.48l1,2.07Q304.66,79.1,301.87,78.4Z" style="fill:none;stroke:#263238;stroke-linecap:round;stroke-linejoin:round"></path><path d="M304.67,84.79l-.73-2q2.71,1,5.53,2.25a15.28,15.28,0,0,1,.65,2.19A42.9,42.9,0,0,0,304.67,84.79Z" style="fill:none;stroke:#263238;stroke-linecap:round;stroke-linejoin:round"></path><path d="M306.65,91.48l-.53-2c.88.43,1.76.9,2.64,1.39l1.33.75,1.24.82.35,2.26q-1.24-.89-2.49-1.68A27.37,27.37,0,0,0,306.65,91.48Z" style="fill:none;stroke:#263238;stroke-linecap:round;stroke-linejoin:round"></path><path d="M307.68,98.38c0-.35,0-.7-.06-1l-.16-1a42,42,0,0,1,4.72,3.63l.11,2.28Q310,100.13,307.68,98.38Z" style="fill:none;stroke:#263238;stroke-linecap:round;stroke-linejoin:round"></path><line x1="255.18" y1="86.34" x2="246.12" y2="133.2" style="fill:none;stroke:#263238;stroke-miterlimit:10"></line><line x1="265.13" y1="133.2" x2="256.08" y2="86.34" style="fill:none;stroke:#263238;stroke-miterlimit:10"></line><line x1="270.29" y1="133.2" x2="260.73" y2="83.72" style="fill:none;stroke:#263238;stroke-miterlimit:10"></line><line x1="252.24" y1="74.86" x2="254.72" y2="61.98" style="fill:none;stroke:#263238;stroke-miterlimit:10"></line><line x1="256.53" y1="61.98" x2="259.02" y2="74.86" style="fill:none;stroke:#263238;stroke-miterlimit:10"></line><line x1="240.96" y1="133.2" x2="250.52" y2="83.72" style="fill:none;stroke:#263238;stroke-miterlimit:10"></line><path d="M222.89,81.31h-.33a1.14,1.14,0,0,1-1.13-1.13V80a1.14,1.14,0,0,1,1.13-1.13h26.93" style="fill:none;stroke:#263238;stroke-miterlimit:10"></path><line x1="222.89" y1="81.31" x2="249.49" y2="81.31" style="fill:none;stroke:#263238;stroke-miterlimit:10"></line><line x1="222.89" y1="81.31" x2="222.89" y2="81.31" style="fill:none;stroke:#263238;stroke-miterlimit:10"></line><line x1="287.68" y1="81.31" x2="261.76" y2="81.31" style="fill:none;stroke:#263238;stroke-miterlimit:10"></line><line x1="287.68" y1="81.31" x2="287.68" y2="81.31" style="fill:none;stroke:#263238;stroke-miterlimit:10"></line><path d="M287.68,81.31h1a1.14,1.14,0,0,0,1.13-1.13V80a1.14,1.14,0,0,0-1.13-1.13H261.76" style="fill:none;stroke:#263238;stroke-miterlimit:10"></path><line x1="270.29" y1="133.2" x2="265.13" y2="133.2" style="fill:none;stroke:#263238;stroke-miterlimit:10"></line><line x1="240.96" y1="133.2" x2="246.12" y2="133.2" style="fill:none;stroke:#263238;stroke-miterlimit:10"></line><polyline points="240.96 133.2 228.38 133.2 228.38 140.7 282.88 140.7 282.88 133.2 270.29 133.2" style="fill:none;stroke:#263238;stroke-miterlimit:10"></polyline><line x1="246.12" y1="133.2" x2="265.13" y2="133.2" style="fill:none;stroke:#263238;stroke-miterlimit:10"></line><path d="M261.76,81.31a6.06,6.06,0,0,0,0-2.4" style="fill:none;stroke:#263238;stroke-miterlimit:10"></path><path d="M255.18,86.34l.45,0,.45,0" style="fill:none;stroke:#263238;stroke-miterlimit:10"></path><path d="M252.24,74.86a6.24,6.24,0,0,0-2.75,4" style="fill:none;stroke:#263238;stroke-miterlimit:10"></path><path d="M252.24,74.86a6.19,6.19,0,0,1,6.78,0" style="fill:none;stroke:#263238;stroke-miterlimit:10"></path><path d="M261.76,78.91a6.22,6.22,0,0,0-2.74-4" style="fill:none;stroke:#263238;stroke-miterlimit:10"></path><path d="M250.52,83.72a6.25,6.25,0,0,1-1-2.41" style="fill:none;stroke:#263238;stroke-miterlimit:10"></path><path d="M256.08,86.34a6.25,6.25,0,0,0,4.65-2.62" style="fill:none;stroke:#263238;stroke-miterlimit:10"></path><path d="M249.49,81.31a6.06,6.06,0,0,1,0-2.4" style="fill:none;stroke:#263238;stroke-miterlimit:10"></path><path d="M260.73,83.72a6.25,6.25,0,0,0,1-2.41" style="fill:none;stroke:#263238;stroke-miterlimit:10"></path><path d="M255.18,86.34a6.27,6.27,0,0,1-4.66-2.62" style="fill:none;stroke:#263238;stroke-miterlimit:10"></path><path d="M256.53,62a3.22,3.22,0,0,1-1.81,0" style="fill:none;stroke:#263238;stroke-miterlimit:10"></path><path d="M256.53,62a3.6,3.6,0,1,0-1.81,0" style="fill:none;stroke:#263238;stroke-miterlimit:10"></path><line x1="230.99" y1="104.4" x2="222.89" y2="81.31" style="fill:none;stroke:#263238;stroke-miterlimit:10"></line><line x1="222.89" y1="81.31" x2="214.79" y2="104.4" style="fill:none;stroke:#263238;stroke-miterlimit:10"></line><path d="M212.88,104.7a10.05,10.05,0,0,0,19.72,0Z" style="fill:none;stroke:#263238;stroke-miterlimit:10"></path><line x1="287.68" y1="81.31" x2="295.78" y2="104.4" style="fill:none;stroke:#263238;stroke-miterlimit:10"></line><line x1="287.68" y1="81.31" x2="279.58" y2="104.4" style="fill:none;stroke:#263238;stroke-miterlimit:10"></line><path d="M287.53,112.8a10,10,0,0,0,9.85-8.1H277.67A10.05,10.05,0,0,0,287.53,112.8Z" style="fill:none;stroke:#263238;stroke-miterlimit:10"></path></g><g id="freepik--Flags--inject-2"><rect x="83.73" y="136.26" width="3.38" height="258.83" style="fill:#263238;stroke:#263238;stroke-linecap:round;stroke-linejoin:round"></rect><polygon points="116.64 395.09 85.25 144.04 61.47 395.09 116.64 395.09" style="fill:#1C2C4B;stroke:#263238;stroke-linecap:round;stroke-linejoin:round"></polygon><polygon points="116.37 395.09 107.08 318.93 70.55 377.81 94.99 395.09 116.37 395.09" style="fill:#1C2C4B;stroke:#263238;stroke-linecap:round;stroke-linejoin:round"></polygon><polygon points="117.2 350.43 70.55 377.81 85.25 144.04 117.2 350.43" style="fill:#1C2C4B;stroke:#263238;stroke-linecap:round;stroke-linejoin:round"></polygon><polygon points="85.25 144.04 117.2 350.43 92.36 333.7 85.25 144.04" style="fill:#1C2C4B;stroke:#263238;stroke-linecap:round;stroke-linejoin:round"></polygon><polygon points="92.36 333.7 104.02 313.92 90.33 289.07 92.36 333.7" style="fill:#1C2C4B;stroke:#263238;stroke-linecap:round;stroke-linejoin:round"></polygon><polygon points="85.25 144.04 65.48 290.59 104.02 313.92 85.25 144.04" style="fill:#1C2C4B;stroke:#263238;stroke-linecap:round;stroke-linejoin:round"></polygon><polygon points="83.73 136.26 79.38 128.59 85.65 116.3 91.92 129.1 87.11 136.26 83.73 136.26" style="fill:#fff;stroke:#263238;stroke-linecap:round;stroke-linejoin:round"></polygon><rect x="413.07" y="136.26" width="3.38" height="258.83" style="fill:#263238;stroke:#263238;stroke-linecap:round;stroke-linejoin:round"></rect><polygon points="445.98 395.09 414.59 144.04 390.81 395.09 445.98 395.09" style="fill:#1C2C4B;stroke:#263238;stroke-linecap:round;stroke-linejoin:round"></polygon><polygon points="445.71 395.09 436.42 318.93 399.89 377.81 424.33 395.09 445.71 395.09" style="fill:#1C2C4B;stroke:#263238;stroke-linecap:round;stroke-linejoin:round"></polygon><polygon points="446.54 350.43 399.89 377.81 414.59 144.04 446.54 350.43" style="fill:#1C2C4B;stroke:#263238;stroke-linecap:round;stroke-linejoin:round"></polygon><polygon points="414.59 144.04 446.54 350.43 421.69 333.7 414.59 144.04" style="fill:#1C2C4B;stroke:#263238;stroke-linecap:round;stroke-linejoin:round"></polygon><polygon points="421.69 333.7 433.36 313.92 419.67 289.07 421.69 333.7" style="fill:#1C2C4B;stroke:#263238;stroke-linecap:round;stroke-linejoin:round"></polygon><polygon points="414.59 144.04 394.82 290.59 433.36 313.92 414.59 144.04" style="fill:#1C2C4B;stroke:#263238;stroke-linecap:round;stroke-linejoin:round"></polygon><polygon points="413.07 136.26 408.72 128.59 414.99 116.3 421.26 129.1 416.45 136.26 413.07 136.26" style="fill:#fff;stroke:#263238;stroke-linecap:round;stroke-linejoin:round"></polygon></g><g id="freepik--Character--inject-2"><path d="M196.78,202.53s-15-7.38-22.64,5.68-2.53,118.73-2.53,118.73H192.4Z" style="fill:#8f8f8f;stroke:#263238;stroke-linecap:round;stroke-linejoin:round"></path><path d="M318.53,202.53s15-7.38,22.64,5.68,2.53,118.73,2.53,118.73H322.91Z" style="fill:#8f8f8f;stroke:#263238;stroke-linecap:round;stroke-linejoin:round"></path><path d="M196.78,202.53H320.89c3.86,0,7,3.42,7.19,7.74l4.28,117.8H185.3l4.28-117.8C189.74,206,192.91,202.53,196.78,202.53Z" style="fill:#8f8f8f;stroke:#263238;stroke-linecap:round;stroke-linejoin:round"></path><path d="M241.28,250.23S205.53,271,195.39,276.6,178.14,285,178.14,289V392.44H339.4s-3.29-102.15-4.31-104.93-55.52-37.28-58.82-38.29S241.28,250.23,241.28,250.23Z" style="fill:#263238;stroke:#263238;stroke-linecap:round;stroke-linejoin:round"></path><path d="M332.3,288.27s2.79-2.54,5.33,1.52,26.37,53.75,26.88,58.57-2,4.82-1,7.86,10.4,20,8.88,24.85-7.67,11.1-10.2,11.35-54,0-54,0a18.49,18.49,0,0,1-9.83-6c-3.81-4.82-13.95-18.25-13.95-20.54s11.16-10.39,13.44-12.93,9.38-2.28,10.4-3S321.91,320,325,312.35a124.23,124.23,0,0,0,4.82-15" style="fill:#263238;stroke:#263238;stroke-linecap:round;stroke-linejoin:round"></path><path d="M298.33,386.39s-17.71-18.71-14-23.52,20.83-12.28,20.83-12.28l20.83-47" style="fill:none;stroke:gray;stroke-linecap:round;stroke-linejoin:round"></path><path d="M308.22,349.88s6.59,2.79,9.89,5.58,25.86,10.65,39.3,10.9" style="fill:none;stroke:gray;stroke-linecap:round;stroke-linejoin:round"></path><path d="M318.36,349.12s20.28,4.31,38.54-5.33" style="fill:none;stroke:gray;stroke-linecap:round;stroke-linejoin:round"></path><path d="M332.3,298.41s-2.53,21.8-4.56,29.16" style="fill:none;stroke:gray;stroke-linecap:round;stroke-linejoin:round"></path><path d="M337.88,300.94c.51.76,6.09,22.82,6.09,31.44" style="fill:none;stroke:gray;stroke-linecap:round;stroke-linejoin:round"></path><path d="M186.26,281.67s-10.65,3.05-12.93,6.34-23.84,31.19-25.61,35.5,4.81,19,4.81,21.55S131,377.26,133.26,383.6s10.15,8.62,10.15,8.62H218s5.83-11.91,11.92-16.22,9.13-3.3,10.65-5.58-.51-6.34-5.58-8.88-19.27-7.86-19.27-7.86,3.55-2.28,1-4.05-12.42-6.6-13.43-8.12-10.65-26.87-13.7-39.05" style="fill:#263238;stroke:#263238;stroke-linecap:round;stroke-linejoin:round"></path><path d="M238.43,370.88s6.7-4.54,1.61-6.94-22.43-9.08-22.43-9.08,3.73-4.81,1.06-5.87-15.42-7.48-15.42-7.48L187.7,297.18" style="fill:none;stroke:gray;stroke-linecap:round;stroke-linejoin:round"></path><path d="M154.31,329.34s35.75,9.64,30.17,10.4-22.56,0-24.59.5" style="fill:none;stroke:gray;stroke-linecap:round;stroke-linejoin:round"></path><path d="M212.88,349.88s-38,6.85-35,7.61,33.72-3.05,33.72-3.05" style="fill:none;stroke:gray;stroke-linecap:round;stroke-linejoin:round"></path><path d="M180.93,295.11s-3.29,26.88-3.29,33.47" style="fill:none;stroke:gray;stroke-linecap:round;stroke-linejoin:round"></path><path d="M177.13,294.35s-7.35,16.48-8.11,23.33" style="fill:none;stroke:gray;stroke-linecap:round;stroke-linejoin:round"></path><line x1="197.67" y1="294.86" x2="247.11" y2="294.86" style="fill:none;stroke:gray;stroke-linecap:round;stroke-linejoin:round"></line><line x1="281.09" y1="295.11" x2="322.16" y2="295.11" style="fill:none;stroke:gray;stroke-linecap:round;stroke-linejoin:round"></line><line x1="257.51" y1="309.82" x2="251.67" y2="355.46" style="fill:none;stroke:gray;stroke-linecap:round;stroke-linejoin:round"></line><line x1="260.04" y1="316.92" x2="260.04" y2="355.46" style="fill:none;stroke:gray;stroke-linecap:round;stroke-linejoin:round"></line><line x1="264.86" y1="309.82" x2="269.68" y2="358.25" style="fill:none;stroke:gray;stroke-linecap:round;stroke-linejoin:round"></line><path d="M239.14,242.74s-1,21.45,1.31,31.65S258,311,262.16,307.61s18.57-31.91,19.09-39.23.27-25.64.27-25.64-14.39,8.89-24.07,6.54A103.44,103.44,0,0,1,239.14,242.74Z" style="fill:#fff;stroke:#263238;stroke-linecap:round;stroke-linejoin:round"></path><path d="M238.93,250.39c4.83,4.31,11.29,8.44,13.67,8.92,3.6.72,12.6.63,15.48-.8a106.49,106.49,0,0,0,13.5-8.2c0-4.31-.06-7.57-.06-7.57s-14.39,8.89-24.07,6.54a103.44,103.44,0,0,1-18.31-6.54S239,245.91,238.93,250.39Z" style="fill:#263238;stroke:#263238;stroke-linecap:round;stroke-linejoin:round"></path><path d="M281.58,254.19c-2.83,6.3-11.48,23.41-21.52,22.56-8.85-.76-17-12.1-21.11-18.68.12,5.81.51,12.05,1.5,16.32,2.35,10.2,17.52,36.62,21.71,33.22s18.57-31.91,19.09-39.23C281.49,265,281.57,259.34,281.58,254.19Z" style="fill:#fff;stroke:#263238;stroke-linecap:round;stroke-linejoin:round"></path><path d="M260.85,277.39c-.6.07-.18-.59-.79-.64s-.16.62-.69.51L253,284.59l5.23,6.54-4.44,6.81s-.52.67-1.06,1.43c3.91,5.76,7.65,9.69,9.43,8.24,1.55-1.26,4.5-6,7.63-11.77l-5.54-4.44,3.66-6Z" style="fill:#1C2C4B;stroke:#263238;stroke-linecap:round;stroke-linejoin:round"></path><polyline points="248.03 290.09 260.06 276.75 272.88 290.09" style="fill:none;stroke:#263238;stroke-linecap:round;stroke-linejoin:round"></polyline><path d="M233.52,219.33s-2.55-4.87-4.88-4.66-5.09,4-1.91,10.39,6.36,6.15,6.57,3.61S233.52,219.33,233.52,219.33Z" style="fill:#fff;stroke:#263238;stroke-linecap:round;stroke-linejoin:round"></path><path d="M227.6,223.21s-1.33-5.55,1.34-5,4.78,4.78,4.78,4.78S228.08,217.71,227.6,223.21Z" style="fill:#263238"></path><path d="M285.1,219.33s2.54-4.87,4.88-4.66,5.08,4,1.9,10.39-6.36,6.15-6.57,3.61S285.1,219.33,285.1,219.33Z" style="fill:#fff;stroke:#263238;stroke-linecap:round;stroke-linejoin:round"></path><path d="M285.55,223.21s5-7.46,5.74-4.4a6.22,6.22,0,0,1-.38,4.78S290.61,217.38,285.55,223.21Z" style="fill:#263238"></path><path d="M235.36,189.54s-4.31,44.21-1.79,49.61,15.44,14.46,19,15.18,12.6.63,15.48-.8,16.89-9,18.33-13.3-2.87-45.66-4.67-51-13.66-9-24.45-9S236.44,186.3,235.36,189.54Z" style="fill:#fff;stroke:#263238;stroke-linecap:round;stroke-linejoin:round"></path><path d="M239.87,192s8.61,10.21,18.86,12.45,21-1.72,21-1.72Z" style="fill:#263238;stroke:#263238;stroke-linecap:round;stroke-linejoin:round"></path><path d="M263.63,209.79s-1.7,4.88-1.7,5.51.85,9.76.85,9.76" style="fill:none;stroke:#263238;stroke-linecap:round;stroke-linejoin:round"></path><path d="M245.6,230.15c.22-1.27,8.7-4.67,8.7-4.67s-2.76,1.91-1.06,2.55,6.15,3.82,7.63,3.18,7.43-3.6,7.64-4.45-.85-2.55-.85-2.55,6.58,4.67,7.21,6.36" style="fill:none;stroke:#263238;stroke-linecap:round;stroke-linejoin:round"></path><path d="M253.45,206.4s-5.72-3.18-8.69-1.06-2.34,3.39-1.49,3.39,2.33-1.91,4.24-1.91S252.82,208.73,253.45,206.4Z" style="fill:#dbdbdb;stroke:#263238;stroke-linecap:round;stroke-linejoin:round"></path><path d="M264.41,206.4s5.72-3.18,8.69-1.06,2.34,3.39,1.49,3.39-2.34-1.91-4.24-1.91S265,208.73,264.41,206.4Z" style="fill:#dbdbdb;stroke:#263238;stroke-linecap:round;stroke-linejoin:round"></path><ellipse cx="248.47" cy="216.15" rx="1.59" ry="2.33" style="fill:#263238"></ellipse><ellipse cx="269.04" cy="216.15" rx="1.59" ry="2.33" style="fill:#263238"></ellipse><path d="M247.09,231.85s2.54,3,4,3.6,14,1.06,17.81.21a5.41,5.41,0,0,0,4.24-4.45" style="fill:none;stroke:#263238;stroke-linecap:round;stroke-linejoin:round"></path><path d="M252,218.27s-.22,3.82-7.43,5.52" style="fill:none;stroke:#263238;stroke-linecap:round;stroke-linejoin:round"></path><path d="M266.39,218.7s2.44,3.47,8.59,3.9" style="fill:none;stroke:#263238;stroke-linecap:round;stroke-linejoin:round"></path><path d="M278.5,203.2s-1.08,4,.72,6.11,3.24,3.59,3.24,3.59-.36,6.83,1.79,6.83,1.44-3.23,1.44-3.23L284.61,200Z" style="fill:#dbdbdb;stroke:#263238;stroke-linecap:round;stroke-linejoin:round"></path><path d="M238.6,191.34s12.58,10.06,25.16,11.86,22.29,1.08,23.73-2.88,3.29-14.13-9.65-19.16-28.63-5.73-37.44.47a11.27,11.27,0,0,0-5,7.91s-3.23,1.08-3.23,4V218.3h2.52s-.72-8.63,2.51-10.43,5.75-5.75,5.75-8.63S238.6,191.34,238.6,191.34Z" style="fill:#dbdbdb;stroke:#263238;stroke-linecap:round;stroke-linejoin:round"></path><path d="M240.49,375.88s21.79,7.35,25.33,8.61,11.91,6.08,11.91,7.6-.25,1.78-1.77,1.78H255.44c-1.27,0-23,.26-24.05-.38a18.22,18.22,0,0,0-4.33-1.14S231.11,376.64,240.49,375.88Z" style="fill:#fff;stroke:#263238;stroke-linecap:round;stroke-linejoin:round"></path><path d="M247.08,389.56s9.88,2,13.68,4.31" style="fill:#fff;stroke:#263238;stroke-linecap:round;stroke-linejoin:round"></path><path d="M252.14,385.51s11.66,4.56,14.7,8.36" style="fill:#fff;stroke:#263238;stroke-linecap:round;stroke-linejoin:round"></path><path d="M258.73,384.24s11.4,5.07,14.69,9.12" style="fill:#fff;stroke:#263238;stroke-linecap:round;stroke-linejoin:round"></path><path d="M234.94,370.67l8.87,5.07s-8.87,4.57-11.41,9.13-4.31,8.11-4.31,8.11H218S218.71,379,234.94,370.67Z" style="fill:#fff;stroke:#263238;stroke-linecap:round;stroke-linejoin:round"></path><path d="M281.92,377.47s-.89-2.08.19-3.29,10.33-3,14.25-.45,7.66,12.62,7.49,15.66-11.18,4.44-14.65,3S281.92,377.47,281.92,377.47Z" style="fill:#fff;stroke:#263238;stroke-linecap:round;stroke-linejoin:round"></path><path d="M284.32,375.58l-5.38.71s-30.58-2.51-32.43-1.35-16.07,19.15-16.07,19.15l17.46,1s14.58-6.28,15.85-6.21,7.2,2.95,11.72,3.72S291.06,391,291.06,391s1.19-3-1-8.7S284.32,375.58,284.32,375.58Z" style="fill:#fff;stroke:#263238;stroke-linecap:round;stroke-linejoin:round"></path><path d="M243.6,394.84s12.83-11.2,14.66-12.11" style="fill:#fff;stroke:#263238;stroke-linecap:round;stroke-linejoin:round"></path><line x1="252.06" y1="380.09" x2="238.82" y2="394.06" style="fill:#fff;stroke:#263238;stroke-linecap:round;stroke-linejoin:round"></line><line x1="247.1" y1="378.03" x2="233.98" y2="394.29" style="fill:#fff;stroke:#263238;stroke-linecap:round;stroke-linejoin:round"></line></g><g id="freepik--Hammer--inject-2"><path d="M107.25,372.59l40.88,16.5a2.23,2.23,0,0,1,1.3,2.71h0a2.22,2.22,0,0,1-3.08,1.36l-39.48-18.65Z" style="fill:#fff;stroke:#263238;stroke-linecap:round;stroke-linejoin:round"></path><path d="M90.57,360h5.76v26.3H90.57c-2.89,0-5.23-5.89-5.23-13.15S87.68,360,90.57,360Z" style="fill:#fff;stroke:#263238;stroke-linecap:round;stroke-linejoin:round"></path><ellipse cx="96.33" cy="373.15" rx="5.22" ry="13.15" style="fill:#fff;stroke:#263238;stroke-linecap:round;stroke-linejoin:round"></ellipse><path d="M97,361h23.83v24.26H97c-2.66,0-4.82-5.43-4.82-12.13S94.36,361,97,361Z" style="fill:#fff;stroke:#263238;stroke-linecap:round;stroke-linejoin:round"></path><path d="M116,373.15c0,6.7,2.16,12.13,4.82,12.13s4.82-5.43,4.82-12.13S123.51,361,120.85,361,116,366.45,116,373.15Z" style="fill:#fff;stroke:#263238;stroke-linecap:round;stroke-linejoin:round"></path><path d="M122.21,360H128v26.3h-5.77c-2.88,0-5.22-5.89-5.22-13.15S119.33,360,122.21,360Z" style="fill:#fff;stroke:#263238;stroke-linecap:round;stroke-linejoin:round"></path><ellipse cx="127.98" cy="373.15" rx="5.22" ry="13.15" style="fill:#fff;stroke:#263238;stroke-linecap:round;stroke-linejoin:round"></ellipse><path d="M82.51,386h53.7a0,0,0,0,1,0,0v.48a3.17,3.17,0,0,1-3.17,3.17H85.68a3.17,3.17,0,0,1-3.17-3.17V386A0,0,0,0,1,82.51,386Z" transform="translate(218.73 775.62) rotate(180)" style="fill:#fff;stroke:#263238;stroke-linecap:round;stroke-linejoin:round"></path><path d="M74.46,389.44H145a0,0,0,0,1,0,0v.5a3.33,3.33,0,0,1-3.33,3.33H77.79a3.33,3.33,0,0,1-3.33-3.33v-.5A0,0,0,0,1,74.46,389.44Z" transform="translate(219.5 782.71) rotate(180)" style="fill:#fff;stroke:#263238;stroke-linecap:round;stroke-linejoin:round"></path></g><g id="freepik--Table--inject-2"><rect x="34.15" y="399.56" width="429.54" height="67.3" style="fill:#fff"></rect><rect x="54.55" y="402.39" width="394.69" height="6.14" style="opacity:0.30000000000000004"></rect><rect x="28.29" y="392.81" width="444.9" height="11.49" style="fill:#263238;stroke:#263238;stroke-linecap:round;stroke-linejoin:round"></rect><rect x="54.38" y="404.38" width="104.36" height="11.25" style="fill:none;stroke:#263238;stroke-linecap:round;stroke-linejoin:round"></rect><polygon points="140.63 426.88 72.5 426.88 63.99 415.63 149.14 415.63 140.63 426.88" style="fill:none;stroke:#263238;stroke-linecap:round;stroke-linejoin:round"></polygon><line x1="72.5" y1="426.88" x2="72.5" y2="469.75" style="fill:none;stroke:#263238;stroke-linecap:round;stroke-linejoin:round"></line><line x1="140.45" y1="469.75" x2="140.45" y2="426.88" style="fill:none;stroke:#263238;stroke-linecap:round;stroke-linejoin:round"></line><polyline points="79.97 470 79.97 433.85 103.55 433.85 103.55 469.75" style="fill:none;stroke:#263238;stroke-linecap:round;stroke-linejoin:round"></polyline><polyline points="108.88 470 108.88 433.85 132.46 433.85 132.46 469.75" style="fill:none;stroke:#263238;stroke-linecap:round;stroke-linejoin:round"></polyline><rect x="344.95" y="404.38" width="104.36" height="11.25" style="fill:none;stroke:#263238;stroke-linecap:round;stroke-linejoin:round"></rect><polygon points="431.2 426.88 363.07 426.88 354.56 415.63 439.71 415.63 431.2 426.88" style="fill:none;stroke:#263238;stroke-linecap:round;stroke-linejoin:round"></polygon><line x1="363.07" y1="469.75" x2="363.07" y2="426.88" style="fill:none;stroke:#263238;stroke-linecap:round;stroke-linejoin:round"></line><line x1="431.03" y1="426.88" x2="431.03" y2="469.75" style="fill:none;stroke:#263238;stroke-linecap:round;stroke-linejoin:round"></line><polyline points="370.55 470 370.55 433.85 394.13 433.85 394.13 469.75" style="fill:none;stroke:#263238;stroke-linecap:round;stroke-linejoin:round"></polyline><polyline points="399.45 470 399.45 433.85 423.03 433.85 423.03 469.75" style="fill:none;stroke:#263238;stroke-linecap:round;stroke-linejoin:round"></polyline><line x1="140.96" y1="441.09" x2="362.57" y2="441.09" style="fill:none;stroke:#263238;stroke-linecap:round;stroke-linejoin:round"></line><rect x="208.91" y="410.91" width="87.9" height="23.52" style="fill:#fff"></rect><path d="M230.33,428.71c.27,0,.59,0,.87,0,.8,0,1.44-.29,1.44-1.53V415h2.52V427c0,3.21-1.72,4-3.62,4a9.4,9.4,0,0,1-1.21-.05Z" style="fill:#263238"></path><path d="M239.28,415v12.38c0,1.14.51,1.55,1.31,1.55s1.31-.41,1.31-1.55V415h2.38v12.22c0,2.56-1.28,4-3.76,4s-3.76-1.47-3.76-4V415Z" style="fill:#263238"></path><path d="M246,415h4c2.52,0,3.75,1.4,3.75,4V427c0,2.56-1.23,4-3.75,4h-4Zm2.52,2.29v11.46h1.42c.8,0,1.28-.41,1.28-1.56v-8.34c0-1.15-.48-1.56-1.28-1.56Z" style="fill:#263238"></path><path d="M259.13,422.06h3.53v5.09c0,2.57-1.29,4-3.76,4s-3.76-1.47-3.76-4v-8.34c0-2.57,1.28-4,3.76-4s3.76,1.46,3.76,4v1.56h-2.39v-1.72c0-1.15-.5-1.58-1.3-1.58s-1.31.43-1.31,1.58v8.66c0,1.15.51,1.56,1.31,1.56s1.3-.41,1.3-1.56v-2.95h-1.14Z" style="fill:#263238"></path><path d="M266.8,421.72h3.46V424H266.8v4.7h4.36V431h-6.88V415h6.88v2.29H266.8Z" style="fill:#263238"></path><path d="M295.29,412.43v20.49H210.43V412.43h84.86m3-3H207.39V436h90.94V409.39Z" style="fill:#263238"></path></g></svg>